HIERARCHY
ROOT Hips
{
  OFFSET 263.056 91.6644 -274.608
  CHANNELS 6 Xposition Yposition Zposition Zrotation Xrotation Yrotation
  JOINT LeftUpLeg
  {
    OFFSET 8.64259 1.95398 -2.38835
    CHANNELS 3 Zrotation Xrotation Yrotation
    JOINT LeftLeg
    {
      OFFSET 43.7702 0 0
      CHANNELS 3 Zrotation Xrotation Yrotation
      JOINT LeftFoot
      {
        OFFSET 40.6238 0 0
        CHANNELS 3 Zrotation Xrotation Yrotation
        JOINT LeftToeBase
        {
          OFFSET 12.7242 0 0
          CHANNELS 3 Zrotation Xrotation Yrotation
          End Site
          {
            OFFSET 0 0 0
          }
        }
      }
    }
  }
  JOINT RightUpLeg
  {
    OFFSET -8.2249 1.95398 -2.59336
    CHANNELS 3 Zrotation Xrotation Yrotation
    JOINT RightLeg
    {
      OFFSET 43.5653 0 0
      CHANNELS 3 Zrotation Xrotation Yrotation
      JOINT RightFoot
      {
        OFFSET 40.6238 0 0
        CHANNELS 3 Zrotation Xrotation Yrotation
        JOINT RightToeBase
        {
          OFFSET 12.7242 0 0
          CHANNELS 3 Zrotation Xrotation Yrotation
          End Site
          {
            OFFSET 0 0 0
          }
        }
      }
    }
  }
  JOINT Spine
  {
    OFFSET 0.165834 0.87714 6.61349
    CHANNELS 3 Zrotation Xrotation Yrotation
    JOINT Spine1
    {
      OFFSET 7.38963 1.71661e-005 0
      CHANNELS 3 Zrotation Xrotation Yrotation
      JOINT Spine2
      {
        OFFSET 11.9445 1.14441e-005 0
        CHANNELS 3 Zrotation Xrotation Yrotation
        JOINT Spine3
        {
          OFFSET 14.7254 4.19617e-005 0
          CHANNELS 3 Zrotation Xrotation Yrotation
          JOINT Spine4
          {
            OFFSET 10.9679 0 0
            CHANNELS 3 Zrotation Xrotation Yrotation
            JOINT RightShoulder
            {
              OFFSET 2.46616 -1.6653 3.69651
              CHANNELS 3 Zrotation Xrotation Yrotation
              JOINT RightArm
              {
                OFFSET 13.0012 0 0
                CHANNELS 3 Zrotation Xrotation Yrotation
                JOINT RightForeArm
                {
                  OFFSET 28.7848 1.52588e-005 0
                  CHANNELS 3 Zrotation Xrotation Yrotation
                  JOINT RightHand
                  {
                    OFFSET 26.5688 1.52588e-005 0
                    CHANNELS 3 Zrotation Xrotation Yrotation
                    End Site
                    {
                      OFFSET 0 0 0
                    }
                  }
                }
              }
            }
            JOINT LeftShoulder
            {
              OFFSET 2.38034 -1.29275 -3.7523
              CHANNELS 3 Zrotation Xrotation Yrotation
              JOINT LeftArm
              {
                OFFSET 16.3182 6.10352e-005 0
                CHANNELS 3 Zrotation Xrotation Yrotation
                JOINT LeftForeArm
                {
                  OFFSET 27.0901 0 0
                  CHANNELS 3 Zrotation Xrotation Yrotation
                  JOINT LeftHand
                  {
                    OFFSET 24.5451 1.52588e-005 0
                    CHANNELS 3 Zrotation Xrotation Yrotation
                    End Site
                    {
                      OFFSET 0 0 0
                    }
                  }
                }
              }
            }
            JOINT Neck
            {
              OFFSET 5.0226 -0.0266342 0
              CHANNELS 3 Zrotation Xrotation Yrotation
              JOINT Head
              {
                OFFSET 6.69364 2.86102e-005 0
                CHANNELS 3 Zrotation Xrotation Yrotation
                End Site
                {
                  OFFSET 0 0 0
                }
              }
            }
          }
        }
      }
    }
  }
}
MOTION
Frames:	9
Frame Time:	0.0416667
-7.20494 97.613 -37.6584 -104.723 -86.103 -105.554 -172.839 3.19267 90.8411 -7.11194 10.4558 0.248119 59.3128 2.19048 5.9353 32.4369 4.58895 -13.5622 177.305 4.75573 88.1202 -14.1942 3.77446 -1.68784 64.7078 -1.58576 -0.861911 30.4496 -0.517626 12.7845 -0.152449 7.05966 -89.9174 12.7599 -0.26321 0.196318 1.08896 -0.254319 0.207708 -21.4464 -0.310048 0.108133 -1.43372 -0.310044 0.108139 80.0296 -51.5507 -115.24 25.0188 -9.4168 5.71693 -7.0524 -15.9825 -37.9793 -5.10722 -0.497287 3.82001 -105.338 -43.8471 53.5202 -26.7798 10.1413 4.82824 2.98857 9.92403 -29.6091 14.3462 1.00997 3.10889 13.2746 1.72408 1.64595 -8.20181 1.28185 -0.46913 
-7.22118 97.5754 -37.6136 -104.589 -85.983 -105.44 -172.736 3.11118 90.914 -7.11217 11.16 0.0903815 59.3729 2.39081 6.29425 32.3481 4.47027 -12.3705 177.377 4.44552 88.2155 -13.6912 4.13372 -1.80645 64.9479 -1.67407 -0.901589 30.3345 -0.564316 13.3236 -0.154121 7.05982 -89.9322 12.7691 -0.273612 0.167875 1.09817 -0.265959 0.179743 -21.4372 -0.311421 0.0778777 -1.42455 -0.311412 0.0778796 80.1225 -51.2611 -115.216 25.1703 -9.879 5.63375 -7.64795 -17.7136 -37.1162 -5.90057 -0.604163 5.11075 -105.157 -43.9422 53.8366 -27.1236 9.65463 4.84638 3.41369 9.86144 -30.2077 13.1908 1.20158 5.05552 13.3463 1.79162 1.72931 -8.58258 1.30715 -0.0367784 
-7.21542 97.5999 -37.6111 -105.021 -85.9787 -105.858 -172.721 3.09282 90.9307 -7.12329 10.9333 0.103611 59.3756 2.34895 6.14454 32.3227 4.46123 -12.7673 177.36 4.50377 88.2228 -13.7997 4.38607 -1.77464 64.6709 -1.5417 -0.82235 30.6883 -0.51745 13.6313 -0.150934 7.05985 -89.9353 12.7523 -0.268761 0.161308 1.08133 -0.261407 0.172974 -21.454 -0.304825 0.0730674 -1.44137 -0.304821 0.0730669 80.1609 -51.275 -115.155 25.1745 -9.9195 5.72485 -7.71911 -17.52 -37.6219 -5.55463 -0.592305 5.49341 -105.227 -43.9633 53.7414 -27.1001 9.6627 4.82106 3.2663 9.57285 -30.1374 13.0203 1.19975 5.15542 13.3704 1.71852 1.75435 -8.52158 1.23203 -0.106673 
-7.21746 97.594 -37.5723 -104.539 -86.015 -105.394 -172.767 3.10495 90.8923 -7.12812 11.0932 0.130745 59.372 2.42088 6.35022 32.6691 4.76926 -12.7321 177.377 4.62261 88.1503 -14.1274 3.39444 -1.8526 64.7418 -1.56331 -0.838579 30.8835 -0.413093 12.1572 -0.152761 7.05989 -89.9403 12.7507 -0.274783 0.15197 1.07979 -0.267829 0.163917 -21.4556 -0.30775 0.0623655 -1.44293 -0.307759 0.0623566 80.3617 -51.0168 -114.961 25.4679 -9.98046 5.65748 -7.73705 -17.7723 -37.3851 -5.81136 -0.609504 5.39869 -105.282 -44.041 53.6976 -27.1054 9.68077 4.78355 3.19991 9.50594 -30.0425 12.9863 1.14784 4.79376 13.2304 1.77374 1.85332 -8.33611 1.27026 -0.273259 
-7.21862 97.5852 -37.5202 -103.274 -86.0691 -104.04 -172.715 3.17517 90.9852 -7.12033 11.0167 0.12171 59.4688 2.3845 6.02233 32.0195 4.18386 -12.6 177.446 4.55766 88.2682 -13.9044 3.50511 -1.85959 64.9037 -1.6657 -0.899514 30.4531 -0.494216 12.3211 -0.141081 7.06001 -89.9571 12.754 -0.259619 0.116592 1.0831 -0.254235 0.127899 -21.4522 -0.28266 0.0331637 -1.4396 -0.282657 0.0331692 80.4699 -50.9261 -114.837 25.4562 -10.0599 5.72304 -7.75029 -17.5872 -37.8965 -5.52562 -0.59588 5.65454 -105.379 -44.042 53.5548 -27.1483 9.55614 4.79464 3.34808 9.57467 -30.1621 12.928 1.13413 4.72864 13.2365 1.8288 2.01625 -8.37121 1.29088 -0.461334 
-7.22756 97.5754 -37.4193 -105.152 -86.2665 -105.977 -172.74 3.06369 90.9396 -7.12755 11.4597 0.105366 59.4179 2.45531 6.32792 32.6367 4.72696 -12.2747 177.292 4.3725 88.1539 -13.8445 3.63419 -1.74998 64.9793 -1.66176 -0.896897 30.5563 -0.472798 12.243 -0.164401 7.06489 -89.9556 12.7443 -0.305223 0.125 1.07337 -0.299432 0.138317 -21.4621 -0.328681 0.0274933 -1.44943 -0.328693 0.0274851 80.1202 -51.1054 -115.28 25.3634 -9.76553 6.05351 -8.02867 -17.5818 -37.9927 -5.56902 -0.599799 5.65841 -105.556 -44.0138 53.2776 -27.2591 9.41637 4.90521 3.39613 9.59204 -30.075 12.902 1.07982 4.34145 12.9943 1.79783 1.96015 -8.16274 1.27005 -0.258303 
-7.23512 97.5774 -37.3871 -105.024 -86.168 -105.912 -172.759 3.01742 90.8856 -7.13222 11.3742 0.0972465 59.3545 2.41628 6.3499 32.6857 4.77133 -12.2767 177.327 4.40652 88.1155 -13.9711 3.50797 -1.83448 65.0475 -1.67453 -0.904306 30.5628 -0.468942 12.1872 -0.16184 7.07581 -89.9414 12.7233 -0.293362 0.151808 1.05239 -0.286396 0.164568 -21.483 -0.325433 0.0566122 -1.47038 -0.32542 0.0566269 80.1667 -51.1465 -115.196 25.3193 -9.84327 5.93275 -7.93854 -17.54 -38.0047 -5.37822 -0.583918 5.63083 -105.537 -44.0387 53.3176 -27.2581 9.38221 5.00391 3.49896 9.59715 -30.3013 12.6891 1.11671 4.74424 13.1047 1.81294 1.95465 -8.25689 1.28677 -0.316106 
-7.20701 97.5874 -37.3218 -104.561 -86.1549 -105.375 -172.777 2.99708 90.903 -7.14936 10.9642 0.198241 59.5099 2.4364 5.98666 32.2169 4.33921 -12.0032 177.328 4.29804 88.1729 -13.7582 3.80253 -1.79981 64.9427 -1.66193 -0.896543 30.5372 -0.5137 13.0187 -0.166371 7.07677 -89.9484 12.7099 -0.305683 0.139442 1.03904 -0.299251 0.152753 -21.4964 -0.333458 0.041123 -1.48375 -0.333463 0.0411128 80.1684 -51.0672 -115.225 25.4756 -9.80058 5.84676 -7.95959 -17.4916 -37.7711 -5.37419 -0.577097 5.43371 -105.495 -43.9974 53.36 -27.3451 9.29371 5.01568 3.45516 9.36345 -30.38 12.7533 1.17829 5.16333 13.1595 1.85368 1.98973 -8.34527 1.32325 -0.463019 
-7.22598 97.553 -37.1721 -102.082 -86.1974 -102.855 -172.78 3.11308 90.9169 -7.19446 11.3854 0.153694 59.299 2.61722 6.88443 32.9321 5.00173 -12.6394 177.409 4.36787 88.2505 -13.7799 3.77434 -1.84405 65.1258 -1.71825 -0.928485 30.7344 -0.45788 12.5719 -0.148655 7.07274 -89.9323 12.7188 -0.262837 0.166549 1.04784 -0.255261 0.177952 -21.4875 -0.300744 0.0798577 -1.47485 -0.300756 0.0798449 80.2562 -51.337 -114.992 25.3822 -9.75844 5.65894 -7.906 -17.682 -37.4399 -5.50844 -0.578941 5.16505 -105.298 -43.6977 53.5059 -27.4591 9.26865 4.80171 3.48878 9.56165 -30.1697 12.7307 1.18356 5.21874 13.342 1.68989 1.37855 -8.27972 1.29848 -0.0663432 
